<?xml version="1.0" encoding="UTF-8"?>
<svg width="90px" height="30px" viewBox="0 0 90 30" version="1.1" xmlns="http://www.w3.org/2000/svg" xmlns:xlink="http://www.w3.org/1999/xlink">
    <!-- Generator: Sketch 62 (91390) - https://sketch.com -->
    <title>Burst-White</title>
    <desc>Created with Sketch.</desc>
    <g id="Page-1" stroke="none" stroke-width="1" fill="none" fill-rule="evenodd">
        <g id="Login-Natuurmonumenten" transform="translate(-60.000000, -711.000000)" fill="#FFFFFF" fill-rule="nonzero">
            <g id="Burst-White" transform="translate(60.000000, 711.000000)">
                <path d="M9.597254,7.74370709 C7.94965675,7.74370709 6.44622426,8.19679634 5.06636156,9.08237986 L5.06636156,0 L0,0 L0,28.2356979 C3.10983982,28.812357 5.68421053,29.1212815 8.38215103,29.1212815 C14.7871854,29.1212815 17.9795178,25.4141876 17.9795178,18 C18,11.1624714 15.1990847,7.74370709 9.597254,7.74370709 Z M8.58810069,24.7551487 C7.27002288,24.7551487 6.11670481,24.590389 5.06636156,24.2814645 L5.06636156,13.0983982 C6.32265446,12.5011442 7.70251716,12.2128146 9.20594966,12.2128146 C11.7803204,12.2128146 13.0778032,14.0869565 13.0778032,17.8558352 C13.0778032,22.4485126 11.5949657,24.7551487 8.58810069,24.7551487 Z" id="Shape"></path>
                <path d="M35.7528604,22.6750572 C33.9405034,24.0755149 32.1487414,24.7757437 30.3981693,24.7757437 C28.3386728,24.7757437 27.617849,23.6018307 27.617849,21.2334096 L27.617849,7.76430206 L22.221968,7.76430206 L22.221968,21.3775744 C22.221968,26.5469108 24.4050343,29.1418764 28.771167,29.1418764 C31.3043478,29.1418764 33.4462243,28.3592677 35.7322654,26.8146453 L35.7322654,29.1418764 L40.9839817,29.1418764 L40.9839817,7.76430206 L35.7528604,7.76430206 L35.7528604,22.6750572 Z" id="Path"></path>
                <path d="M50.8901602,7.76430206 L46.1121281,7.76430206 L46.1121281,29.1418764 L51.1990847,29.1418764 L51.1990847,15.0755149 C52.784897,13.4073227 54.576659,12.4187643 56.5949657,12.4187643 L56.5949657,7.76430206 C54.7002288,7.76430206 52.8878719,8.67048055 51.1784897,10.173913 L50.8901602,7.76430206 Z" id="Path"></path>
                <path d="M67.7574371,16.228833 C65.5331808,15.8993135 64.5240275,15.1167048 64.5240275,13.9633867 C64.5240275,12.4805492 65.5125858,11.8009153 68.1281465,11.8009153 C70.6201373,11.8009153 72.5354691,12.1922197 74.6773455,13.1601831 L74.6773455,8.67048055 C72.5560641,7.84668192 70.6613272,7.51716247 68.2517162,7.51716247 C62.5881007,7.51716247 59.7459954,9.76201373 59.7459954,14.2311213 C59.7459954,19.0915332 64.5240275,20.1212815 67.6132723,20.7185355 C69.610984,21.1098398 70.826087,21.5423341 70.826087,22.778032 C70.826087,24.2814645 70.1052632,25.0228833 68.0251716,25.0228833 C65.2448513,25.0228833 62.4851259,24.5491991 60.3638444,23.6018307 L60.3638444,28.0709382 C62.4851259,28.8947368 65.1830664,29.2860412 67.8604119,29.2860412 C73.2768879,29.2860412 75.6864989,27.0823799 75.6864989,22.6338673 C75.6864989,17.8558352 72.3501144,16.9084668 67.7574371,16.228833 Z" id="Path"></path>
                <path d="M89.8558352,12.02746 L89.8558352,7.76430206 L85.0572082,7.76430206 L85.0572082,7.76430206 L85.0572082,7.76430206 L84.6864989,4.30434783 L79.9908467,4.30434783 L79.9908467,21.3775744 C79.9908467,26.5469108 81.8649886,29.1418764 86.2311213,29.1418764 C87.4668192,29.1418764 88.6819222,28.9565217 89.8558352,28.5858124 L89.8558352,24.5697941 C89.2791762,24.7139588 88.7231121,24.7963387 88.1670481,24.7963387 C86.1075515,24.7963387 85.0778032,23.6224256 85.0778032,21.2540046 L85.0778032,12.0480549 L89.8558352,12.02746 L89.8558352,12.02746 Z" id="Path"></path>
            </g>
        </g>
    </g>
</svg>